<?xml version="1.0" encoding="UTF-8"?>
<!-- Generator: Adobe Illustrator 18.0.0, SVG Export Plug-In . SVG Version: 6.00 Build 0)  -->
<!DOCTYPE svg PUBLIC "-//W3C//DTD SVG 1.1//EN" "http://www.w3.org/Graphics/SVG/1.1/DTD/svg11.dtd">
<svg version="1.1" xmlns="http://www.w3.org/2000/svg" xmlns:xlink="http://www.w3.org/1999/xlink" x="0px" y="0px" width="960px" height="831px" viewBox="0 0 960 831" enable-background="new 0 0 960 831" xml:space="preserve">
<g id="Layer_2">
	<g>
		<polygon fill="#FFFFFF" stroke="#999999" stroke-miterlimit="10" points="0,0.5 314,0.5 306.1,10.5 18,10.5   "/>
		<polygon fill="#DEDFDF" stroke="#999999" stroke-miterlimit="10" points="157,273.6 0,0 18,10 163,262   "/>
		<polygon fill="#DEDFDF" stroke="#999999" stroke-miterlimit="10" points="74.8,41 479.5,740 479.5,723 91.6,52   "/>
		<polygon fill="#FFFFFF" stroke="#999999" stroke-miterlimit="10" points="886,41.5 75,41.5 92,52.5 866,52.5   "/>
		<polygon fill="#C7C0BF" stroke="#999999" stroke-miterlimit="10" points="479.5,723 865.8,52 885.6,41 479.5,740   "/>
		<polygon fill="#4B8299" stroke="#999999" stroke-miterlimit="10" points="799,263.2 776.9,229.2 886,41.5 671,41.5 651,10.5     944,10.5   "/>
		<polygon fill="#C7C0BF" stroke="#999999" stroke-miterlimit="10" points="804,273.6 799,263 944,10 960,0   "/>
		<polygon fill="#FFFFFF" stroke="#999999" stroke-miterlimit="10" points="646,0.5 651,10.5 944,10.5 960,0.5   "/>
		<polygon fill="#4B8299" stroke="#999999" stroke-miterlimit="10" points="360,534.5 320,534.5 480,813.5 642,534.5 600,534.5     480,740.5   "/>
		<polygon fill="#DEDFDF" stroke="#999999" stroke-miterlimit="10" points="307,534.5 479.5,831 479.5,813 320,534.5   "/>
		<polygon fill="#C7C0BF" stroke="#999999" stroke-miterlimit="10" points="651,534.5 642,534.5 479.5,813 479.5,831   "/>
		<polygon fill="#4B8299" stroke="#999999" stroke-miterlimit="10" points="306.1,10.5 289,41.5 75,41.5 183.4,228.3 163,262.4     18,10.5   "/>
		<polyline fill="#E7EFF2" stroke="#999999" stroke-miterlimit="10" points="92,52.5 866,52.5 480,723.5 92,52.5 92,52.5   "/>
	</g>
</g>
<g id="Layer_3">
	<g>
		<path fill="#4B8299" d="M322.3,240.8c-3.6-0.6-7.1-1.1-10.7-1.8c-19.2-3.8-38.5-7.3-57.6-11.5c-12.7-2.8-24.9-7.2-36.4-13.5    c-4.4-2.4-9.2-4.8-10.8-9.8c-1.1-3.5-0.8-7.4-0.9-11.2c0-0.6,1-1.2,1.5-1.7c1.1-1.1,2.2-2.1,3.3-3.2c-0.2-0.3-0.5-0.6-0.7-0.9    c-1,0.5-2,1-3.3,1.7c-0.4-5.4,1.9-9.8,3.9-14.1c5.9-13.2,15.7-23.3,27.1-31.9c16.6-12.5,35-21.7,54.4-29    c21.7-8.1,44-13.9,66.7-18.3c20.8-4.1,41.7-6.3,62.7-8.4c6.4-0.7,13-0.7,19.4-1.2c1.3-0.1,3.1-0.7,3.7-1.6    c7.5-11.2,19-14.9,31.2-17.3c15.1-2.9,29.7-1,43.7,5.3c5.9,2.6,11.5,5.8,14.9,10.8c-1,2.6-2.2,4.5-2.4,6.5    c-0.3,2.2,0.6,4.3,3.8,5.5c0.8-2,1.6-3.9,2.3-5.6c4.4,0.5,8.8,0.9,13.1,1.5c12.3,1.9,24.6,3.8,36.9,6.1    c29.4,5.4,58,13.7,85.4,25.5c19.8,8.5,38.7,18.8,55,33.1c9.9,8.7,18.7,18.5,23.6,31.2c3.3,8.4,4.5,17.1,3.8,26    c-0.3,3.5-2.1,6.1-4.8,7.8c-5,3.2-10.1,6.5-15.6,8.7c-14.1,5.6-28.9,8.8-43.9,11.3c-14.4,2.4-28.9,4.4-43.9,6.6    c0.9,1.1,1.7,2,2.4,2.9c2.5,3.3,5.1,6.5,7.4,10c6.6,9.7,2.9,21.5-2.8,28.2c-10.5,12.6-24.7,19.2-40.3,25.1c0-6,0-11.4,0-16.7    c-7.8-0.8-8.4-0.3-10.7,6.1c-1.2,3.6-2.7,7.2-4.5,10.5c-3.6,6.6-10,8.6-16.9,9.6c-6.4,1-12.8,2.2-19.2,3.3    c-0.7,0.1-1.6,0.2-1.9,0.6c-3.3,5.8-10,8.5-12.1,15.8c-6.4,22-13.8,43.8-21,65.6c-2.4,7.2-8.6,10.8-15,13.7    c-2.5,1.2-3.5,2.5-3.4,5.3c0.2,4.1,0.4,4.2,4.2,5.4c7.3,2.2,14.6,4.5,21.6,7.4c3.3,1.3,6.2,3.8,9,6.2c4.3,3.7,6,8.2,5.4,14.2    c-1.2,11.7-1.5,23.6-2.5,35.3c-0.7,7.8-1.9,15.5-3,23.2c-0.1,1-1,2.1-1.9,2.6c-15.5,10-32.6,13.6-50.8,13.3    c-7.5-0.1-15,0-22.5-0.3c-3.4-0.1-6.7-1-10.6-1.7c-2.8,4.2,0.9,9.1-0.2,14.2c1.4,0.3,2.2,0.5,3,0.6c9,0.4,18,1.2,26.9,1    c9.4-0.2,19-0.5,28.3-2.4c6.8-1.4,13.8-3.8,19.2-9c1.5-1.4,3.3-2.5,5.9-4.5c-0.6,4.2-0.8,7.2-1.5,10    c-5.3,23.7-11.7,47.2-22.9,68.9c-6,11.6-13.1,22.4-24.2,30c-10.6,7.2-22.9,6.4-32.8-1.5c-6.9-5.5-12.3-12.2-16.3-19.9    c-4.6-8.8-8.3-18.1-12.4-27.2c-0.2-0.6-0.2-1.2-0.5-3.2c6.3,6.9,13.5,8.4,21.6,8.2c0-3,0-6.1,0-9.7c-11.4,0.2-20.4-4-26.2-13.6    c-1.7-2.8-2.3-6.2-3.5-9.3c0.4-0.3,0.8-0.6,1.1-0.8c3.6,2.6,6.9,5.9,10.9,7.5c4,1.7,8.7,1.7,13.7,2.6c0-4.1,0-7.6,0-11.4    c-9.1-1.5-18.3-2.6-24.6-11.1c-5.2-7-6.3-14.7-6.6-23c3.7,4.6,5.5,10.4,10.9,13.9c5.5,3.5,11.2,3.3,17.6,4.1    c-0.3-4.8-0.5-8.9-0.7-13c-5.6-2.3-12.4-0.6-17.1-4.9c-4.2-3.9-7.9-8.3-11.7-12.4c0.1-0.2-0.3,0.4-1,1.4    c-0.8-8.2-1.6-15.8-2.4-23.5c0.4-0.2,0.8-0.3,1.2-0.5c3.4,6.9,6.9,13.9,14.7,16.5c4,1.3,8.4,1.2,13,1.8c0-4.9,0-9,0-13.4    c-2.9-0.5-5.6-1.3-8.3-1.5c-8.4-0.8-13.8-5.8-18-12.6c-2.6-4.1-3.7-8.3-3.4-13.2c0.3-5.1,0.2-10.3-0.1-15.5    c-0.3-5.3,1.8-9.3,5.7-12.6c7.1-6,15.6-8.7,24.4-10.9c3.9-1,7.7-1.8,11.9-2.7c0.1-1.5,0.1-3,0.3-4.4c0.3-2.5-0.6-3.9-3-5    c-2.8-1.3-5.4-3.2-8-5c-6.7-4.8-7.4-12.4-8.7-19.5c-3.7-19.3-7.1-38.6-10.5-57.9c-0.4-2.2-1.6-3.3-3.3-4.5c-3-2.1-5.9-4.4-8.2-7.1    c-1.5-1.8-3.1-2.8-5.3-3.2c-10.3-2.1-20.7-3.8-30.8-6.6c-3.1-0.8-6-4.3-7.7-7.3c-2.5-4.2-4.3-9-5.4-13.8c-0.7-3.2-2.1-4.2-4.9-4.3    c-1.5-0.1-2.9-0.2-4.9-0.4c0,5.5,0,10.6,0,15.7c-1,0.2-1.6,0.5-1.9,0.3c-13-5.4-25.2-12.1-34.8-22.8c-3.5-3.9-5.9-8.4-7.3-13.5    c-3.1-11.2,2.7-19.2,9.9-26.6c0.9-0.9,2-1.5,3.1-2.3C322.6,241.5,322.4,241.1,322.3,240.8z M367.5,246.4c1.1,5.1,2.7,9.3,2.7,13.4    c0,6.7,4.5,9.1,9.2,11.6c2,1.1,4.3,1.9,6.5,2.6c16.9,5.8,34.5,8.7,52.2,10c20.1,1.5,40.1,3,60.2,3.4c15.1,0.3,30.3-0.5,45.3-1.8    c12.9-1.1,25.7-3.4,38.4-5.9c6.4-1.3,12.5-4.3,19-6.7c1.3-7.3,2.7-14.6,4.1-22.4C525.4,255,446.7,253.5,367.5,246.4z M470.6,458.9    c7.5,2,14.9,1.2,22.3,0.9c2.3-0.1,3.2-1.5,3.3-3.6c0-9.6,0-19.1,0-28.8c-8.4,0-16.8,0-25.6,0C470.6,437.9,470.6,448.1,470.6,458.9    z M510.1,118.5c8,15.6,14.2,31.5,18,48.3c6,0,11.6,0,17.8,0c-5.9-15.5-12.1-30.2-21.9-43.2c-3.6-4.7-7.5-6.5-13-5.5    C510.8,118.1,510.6,118.3,510.1,118.5z M478.5,117.6c-1.8,16.2-4.7,32-4.7,48.6c5.8,0,11.2,0,17.1,0c-0.9-16.3-1.8-32.3-2.7-48.6    C484.8,117.6,482,117.6,478.5,117.6z M437.4,163.5c4.1-16.7,11.4-32,20.3-46.7c-5.9-1.8-9.7,0.3-13,4.6    c-9.3,12.1-16.7,25.2-22.4,39.3c-0.3,0.7-0.4,1.5-0.7,2.9C427,163.5,431.9,163.5,437.4,163.5z M564,119c0.5,0.2,0.9,0.4,1.4,0.6    c10.3,4.4,19.2,10.9,28.2,17.4c9.8,7,18.3,15.3,26.2,24.4c0.9,1.1,2.2,2.5,3.4,2.6c3,0.2,6.1-0.3,9.2-0.5    c-5.6-6.4-11.4-11.8-17.4-17.1c-11.1-9.8-23.8-17-36.7-23.9C574,120.3,569.8,117.5,564,119z M589.3,165.5c0-0.7,0.1-1.1,0-1.3    c-11.4-17.8-25.7-32.9-43.1-44.9c-2-1.4-2.1-1.3-5.7-0.4c0.3,0.4,0.6,0.8,1,1.1c14,10.8,25.6,23.8,33.9,39.3    c3.2,6,6.8,7.8,12.8,6.6C588.5,165.8,588.8,165.7,589.3,165.5z M585.6,119.4c5.7,2.6,10.8,4.8,15.8,7.1c18,8.5,34.8,18.9,50,31.8    c3.7,3.1,6.2,3.4,11,1C644.6,142.9,598.1,119.5,585.6,119.4z M531.2,180.2c0.8,5.4,1.5,10.4,2.2,15.2c6.5,0,12.8,0,19.6,0    c-1.4-5.5-2.6-10.4-3.8-15.2C543,180.2,537.3,180.2,531.2,180.2z M472.6,179.8c-0.3,4.7-0.6,9.6-1,15.1c6.6,0,12.6,0,18.8,0    c0-4.9,0-9.6,0-15.1C484.6,179.8,479.1,179.8,472.6,179.8z M690.6,155.9c-9.3-9.4-65-34.6-74.1-33.4c1.2,0.6,2.1,1.1,2.9,1.5    c21.9,9,44.1,17.4,63.5,31.5C685.2,157.1,687.9,157.1,690.6,155.9z M361.5,186.9c6.2,0.7,11.9,1.3,17.5,1.9    c2.4-5.3,4.6-10.1,6.9-15.2c-5-0.6-9.4-1.1-13.7-1.7c-1.8-0.2-3.1,0.3-4,2.1C366.2,178.2,364,182.3,361.5,186.9z M412.3,191.8    c6.5,0.4,12.2,0.7,17.8,1c1.2-5.5,2.2-10.3,3.3-15.5c-5.8-0.4-11.2-0.7-16.8-1.1C415.1,181.5,413.8,186.3,412.3,191.8z     M304.2,162.4c-4.1-0.9-7.2-1.6-10.3-2.2c-0.9-0.2-2.2-0.1-2.8,0.4c-4.5,3.8-8.8,7.8-13.7,12.1c4.4,1.1,8.1,2,11.8,2.7    c1,0.2,2.4-0.3,3.1-1C296.1,170.9,299.8,167,304.2,162.4z M604.1,193.6c-2.1-4.9-3.8-9.2-5.8-13.4c-0.4-0.9-1.6-1.9-2.5-1.9    c-3.2-0.1-6.5,0.2-10.3,0.3c2.2,5.8,4.1,10.8,6,15.7C595.8,194.1,599.6,193.9,604.1,193.6z M631.8,176.3c1.3,2.2,2.5,4.3,3.8,6.4    c5.6,8.8,5.6,8.8,16,7.2c0.2,0,0.4-0.4,0.6-0.6c0-0.2,0.1-0.4,0-0.5c-1.3-1.9-3-3.7-3.8-5.7C645.2,175.5,639.9,173.6,631.8,176.3z     M338.5,167.9c-3.7-0.6-6.6-1.1-9.5-1.4c-0.7-0.1-1.7,0.4-2.1,1c-3.4,4.2-6.7,8.4-10.6,13.2c4.2,0.7,7.5,1.3,10.9,1.7    c0.7,0.1,1.7-0.5,2.1-1.1C332.3,177.1,335.2,172.8,338.5,167.9z M689.4,184.7c-4.2-4.6-7.9-8.6-11.6-12.5c-0.6-0.6-1.8-1-2.7-0.9    c-2.7,0.2-5.4,0.7-8.9,1.2c4.1,4.7,7.6,8.7,11.2,12.6c0.6,0.7,1.7,1.4,2.5,1.4C682.8,186.1,685.7,185.4,689.4,184.7z M490.8,212.5    c-7,0-13.3,0-19.7,0c0,2.4,0,4.4,0,7c6.6,0.3,13.1,0.7,20.1,1.1C491.1,217.6,491,215.3,490.8,212.5z M490.3,235.5    c-6.9,0-13.6,0-20.3,0c-1.1,5.5-0.5,7.1,3,7.2c4.8,0.2,9.6,0.1,14.5,0.1c2.1,0,3-1.1,3-3.1C490.5,238.5,490.4,237.2,490.3,235.5z     M538.9,242.2c6.4,0,12.7,0,19.5,0c-0.2-2.5-0.4-4.6-0.5-6.5c-6.7,0-12.8,0-19,0C538.9,238,538.9,239.8,538.9,242.2z M348.4,232.1    c6.4,0.7,12.5,1.5,19,2.2c0-2.6,0-4.6,0-7.2c-4.5-0.5-8.9-0.9-13.3-1.5C348.7,224.9,348.2,225.3,348.4,232.1z M424.1,232.3    c-6.6-0.4-12.6-0.8-19-1.3c-0.3,2.6-0.5,4.7-0.8,7.3c6.9,0,13.3,0,19.8,0C424.1,236.4,424.1,234.6,424.1,232.3z M598.1,240.7    c6.6-0.4,12.9-0.8,19.7-1.2c-0.5-2.7-0.8-4.7-1.2-6.9c-6.4,0.3-12.5,0.6-18.5,0.9C598.1,236,598.1,238.1,598.1,240.7z     M593.7,211.4c0.3,2.5,0.6,4.7,0.9,7.2c6.5-0.4,12.6-0.7,19.3-1.1c-0.8-2.6-1.4-4.7-2.2-7.1C605.6,210.7,599.9,211,593.7,211.4z     M426.3,216.8c0-2.5,0-4.4,0-6.7c-6-0.5-11.7-0.9-17.8-1.4c-0.6,2.3-1.1,4.4-1.8,7C413.6,216.1,419.9,216.4,426.3,216.8z     M352.8,210.2c6.9,0.7,13,1.3,19.3,1.9c0.5-2.6,0.8-4.5,1.3-6.8c-6.5-0.7-12.4-1.2-18.5-1.9C354.2,205.7,353.6,207.5,352.8,210.2z     M556.9,219.6c-0.6-2.7-1.1-4.9-1.4-6.5c-6.4,0-12.1,0-18,0c0,2.4,0,4.3,0,6.5C543.9,219.6,550,219.6,556.9,219.6z M699.8,229.5    c6-1.3,11.2-2.4,17-3.7c-1.2-2.6-2.2-4.5-3.1-6.5c-5.5,1-10.5,2-16.1,3C698.4,224.9,699,227,699.8,229.5z M268.9,210.5    c-5.5-1.3-10.7-2.6-16.1-3.9c-1.1,2.2-2,4-3.1,6.3c5.9,1.6,11.3,3.1,16.7,4.6C267.3,215,268,213,268.9,210.5z M699.8,168    c4.1,3.6,7.9,7,11.8,10.2c3.2,2.6,5.2,2.4,9.2-0.8c-3.4-2.7-7.1-5.1-10.1-8.1C707.5,166.1,704.4,165.4,699.8,168z M691.3,208.8    c5-0.8,9.5-1.6,14.9-2.5c-1.5-2.7-2.6-4.9-3.7-6.9c-5.5,0.9-10.5,1.7-15.9,2.6C688.4,204.7,689.8,206.6,691.3,208.8z M260.9,193.2    c4.4,1.1,8.3,1.9,12.1,3c1.8,0.5,3.2,0.4,4.3-1.3c0.9-1.3,2-2.5,3.4-4.3c-4.4-0.9-8.4-1.3-12.1-2.5c-2.6-0.8-4.1-0.3-5.4,1.9    C262.6,191,261.9,191.8,260.9,193.2z M254.4,166.4c3.8,2.8,6.5,2.4,9.4-0.3c3-2.8,6.4-5.2,9.6-7.9c0.6-0.5,0.7-1.5,1.5-3.3    c-3,0.6-5.4,0.5-7,1.5C263.4,159.4,259.2,162.9,254.4,166.4z M311.9,219.7c-5.2-0.9-9.5-1.6-14.2-2.5c-0.7,2.5-1.2,4.6-1.8,6.9    c5.2,0.7,9.7,1.2,14.5,1.8C310.9,223.8,311.3,221.9,311.9,219.7z M654.9,229.5c0.1,5.5,0.3,6.1,2.8,5.9c3.9-0.3,7.8-0.9,12.2-1.4    c-0.6-2.4-1.1-4.5-1.7-6.9C663.6,228.1,659.4,228.8,654.9,229.5z M660.1,206.1c-4.6,0.4-8.6,0.8-13.2,1.3c1.1,2.5,2,4.5,3,6.8    c4.3-0.5,8.4-1,12.8-1.5C661.7,210.1,661,208.3,660.1,206.1z M320.2,198.4c-3.5-0.5-6.2-1-9-1.4c-5.2-0.7-5.3-0.7-6.4,5.7    c4.1,0.7,8.1,1.5,12.2,2.2C318.2,202.7,319,200.9,320.2,198.4z M466.2,89c-0.1-2.7-2.6-4.9-5.4-4.7c-2.4,0.2-4.6,2.6-4.6,5    c0,2.5,2.8,5.2,5.2,5.1C464,94.3,466.3,91.7,466.2,89z M503.1,97.5c2.6,0,5.1-2.6,5.1-5.2c-0.1-2.5-2.3-4.9-4.7-5    c-2.6-0.1-5.2,2.2-5.3,4.9C498.1,94.8,500.5,97.4,503.1,97.5z M526.7,92c0.2-2.7-1.7-5.2-4.1-5.4c-2.6-0.3-5.4,2.1-5.5,4.6    c-0.1,2.7,2.2,5.4,4.8,5.5C524.5,96.7,526.6,94.7,526.7,92z M475.9,91.5c-0.1,2.6,1.8,5,4.3,5.2c2.5,0.2,5.2-2.2,5.3-4.9    c0.1-2.5-2-5-4.4-5.3C478.5,86.4,476,88.8,475.9,91.5z M256.4,152.6c-4.1-1.6-14.3,3.9-18.5,8.9c0.8,0.3,1.7,1.1,2.1,0.9    C245.5,159.1,251,155.8,256.4,152.6z M221.2,202c3.1,1.2,5.4,2.1,7.6,2.9c1.3-1.9,2.5-3.5,3.9-5.5c-2.2-1.2-4.1-2.2-6.2-3.3    C224.7,198.2,223.2,199.8,221.2,202z M235.3,185.4c2.3,0.9,4.5,1.7,6.8,2.6c0.9-1.2,1.4-2,2-2.8c0.6-0.9,1.1-1.8,1.7-2.8    C240.1,179.1,239.5,179.3,235.3,185.4z M734.4,213c1.5,2.4,2.7,4.3,3.8,6.2c2.5-1.1,4.4-2,6.5-3c-1.3-2.1-2.4-3.9-3.6-5.8    C739,211.2,737,211.9,734.4,213z M720.7,162.9c10.1,10,12.7,11.5,16.7,9.7C731.4,169.8,727,164.8,720.7,162.9z M732.2,198.3    c-4.4-6.2-5.8-5.6-9.8-2.3C725.8,202,726.5,202.2,732.2,198.3z M452.8,82.5c-3.5,0.3-6.4,2.9-6.3,5.6c0.1,0.9,0.6,2.3,1.3,2.5    c0.9,0.3,2.3,0,3.1-0.6C453.2,88,454,85.5,452.8,82.5z"/>
		<path fill="#4B8299" d="M417.2,527.3c0.1,0,0.2,0,0.2,0c0.1,0.1,0.1,0.2,0.1,0.3c-0.2,0-0.3,0-0.5,0    C417.1,527.5,417.2,527.4,417.2,527.3z"/>
	</g>
</g>
</svg>