<?xml version="1.0" encoding="utf-8"?>
<!-- Generator: Adobe Illustrator 18.1.0, SVG Export Plug-In . SVG Version: 6.00 Build 0)  -->
<!DOCTYPE svg PUBLIC "-//W3C//DTD SVG 1.1//EN" "http://www.w3.org/Graphics/SVG/1.1/DTD/svg11.dtd">
<svg version="1.1" id="Layer_1" xmlns="http://www.w3.org/2000/svg" xmlns:xlink="http://www.w3.org/1999/xlink" x="0px" y="0px"
	 viewBox="0 0 252.0576 38.9082" enable-background="new 0 0 252.0576 38.9082" xml:space="preserve">
<g>
	<path fill="#FFFFFF" d="M2.084,13.7842c0-2.52,0.5039-4.2896,1.5122-5.3101c1.0078-1.02,2.4478-1.5298,4.3198-1.5298h13.248
		c1.8721,0,3.312,0.5098,4.3198,1.5298c1.0083,1.0205,1.5122,2.79,1.5122,5.3101v9.5039c0,2.4722-0.5039,4.2183-1.5122,5.2383
		c-1.0078,1.02-2.4478,1.5298-4.3198,1.5298H7.916c-1.8721,0-3.312-0.5098-4.3198-1.5298c-1.0083-1.02-1.5122-2.7661-1.5122-5.2383
		V13.7842z M10.8682,24.7642c0,0.5522,0.144,0.936,0.4316,1.1519c0.2881,0.2163,0.7202,0.3242,1.2964,0.3242h3.8159
		c0.5757,0,1.0078-0.1079,1.2959-0.3242c0.2881-0.2158,0.4321-0.5996,0.4321-1.1519V12.3081c0-0.5996-0.144-1.0078-0.4321-1.2241
		c-0.2881-0.2158-0.7202-0.3237-1.2959-0.3237h-3.8159c-0.5762,0-1.0083,0.1079-1.2964,0.3237
		c-0.2876,0.2163-0.4316,0.6245-0.4316,1.2241V24.7642z"/>
	<path fill="#FFFFFF" d="M45.1763,30.0562l-0.252-1.7642h-0.0723c0,0.0244-0.0063,0.0425-0.0181,0.0542
		c-0.0122,0.0122-0.0181,0.0303-0.0181,0.0542c-0.1924,0.4082-0.4497,0.7861-0.7739,1.1338
		c-0.3237,0.3481-0.7861,0.522-1.3857,0.522h-6.876c-1.9927,0-3.4326-0.5518-4.3203-1.6558c-0.8882-1.104-1.332-2.604-1.332-4.5
		v-6.8765c0-1.0557-0.0781-1.8296-0.2339-2.3218c-0.1562-0.4917-0.3418-0.9297-0.5581-1.314
		c-0.0239-0.0479-0.0483-0.0898-0.0718-0.126c-0.0244-0.0361-0.0483-0.0776-0.0723-0.126h9.4321v12.2041
		c0,0.5278,0.1021,0.894,0.3062,1.0977c0.2036,0.2046,0.5698,0.3062,1.0981,0.3062h3.0957c0.5278,0,0.894-0.1016,1.0981-0.3062
		c0.2036-0.2036,0.3062-0.5698,0.3062-1.0977v-8.3164c0-1.0557-0.0786-1.8296-0.2344-2.3218
		c-0.1562-0.4917-0.3418-0.9297-0.5581-1.314c-0.0239-0.0479-0.0483-0.0898-0.0718-0.126c-0.0244-0.0361-0.0483-0.0776-0.0718-0.126
		h9.5039V26.168c0,1.0566,0.0776,1.8306,0.2339,2.3223c0.1558,0.4922,0.3418,0.9302,0.5581,1.314
		c0.0234,0.0483,0.0479,0.0898,0.0718,0.126s0.0479,0.0781,0.0723,0.126H45.1763z"/>
	<path fill="#FFFFFF" d="M58.064,9.6079l8.4961-0.2158v3.7441h6.8398v3.312h-6.8398v8.9277c0,0.5283,0.0957,0.8882,0.2881,1.0801
		c0.1919,0.1924,0.6597,0.2881,1.4038,0.2881h2.9883c0.5273,0,0.9956-0.0361,1.4038-0.1079
		c0.4077-0.0723,0.7437-0.1558,1.0078-0.252c0.168-0.0479,0.312-0.1021,0.4321-0.1621c0.1196-0.0596,0.2158-0.1021,0.2881-0.126
		l-0.54,3.96H63.104c-1.3442,0-2.52-0.354-3.5278-1.062c-1.0083-0.7075-1.5122-2.1177-1.5122-4.23v-8.3159h-3.6357v-3.312h3.6357
		V9.6079z"/>
	<path fill="#FFFFFF" d="M83.7319,13.1362l0.4678,1.7998c0.0479-0.1196,0.1021-0.2339,0.1621-0.3418
		c0.0596-0.1079,0.1138-0.21,0.1621-0.3062c0.2397-0.3838,0.498-0.6714,0.7739-0.8638c0.2759-0.1919,0.6538-0.2881,1.1343-0.2881
		h7.2358c1.9438,0,3.3174,0.4858,4.1221,1.458c0.8037,0.9717,1.2061,2.2383,1.2061,3.7979v6.4082
		c0,1.5361-0.4023,2.7959-1.2061,3.7798c-0.8047,0.9844-2.1782,1.4761-4.1221,1.4761H86.936c-0.6001,0-1.0503-0.1196-1.3501-0.3599
		c-0.3003-0.2397-0.522-0.5039-0.666-0.792c-0.0244-0.0957-0.0542-0.1855-0.0898-0.27c-0.0361-0.084-0.0664-0.1621-0.0903-0.2339
		H84.668v4.896c0,0.8394,0.0718,1.4878,0.2158,1.9438c0.144,0.4556,0.312,0.8516,0.5039,1.188l-9.2158,0.0361v-1.7642v-18.396
		c0-0.8643-0.0718-1.5239-0.2158-1.98c-0.144-0.4556-0.3125-0.8516-0.5039-1.188H83.7319z M84.668,25.4482
		c0,0.4561,0.0957,0.7861,0.2881,0.9897c0.1919,0.2046,0.4917,0.3062,0.8999,0.3062h3.3838c0.4082,0,0.708-0.1016,0.9004-0.3062
		c0.1914-0.2036,0.2876-0.5337,0.2876-0.9897v-7.7041c0-0.48-0.0962-0.8154-0.2876-1.0078
		c-0.1924-0.1919-0.4922-0.2881-0.9004-0.2881H85.856c-0.4082,0-0.708,0.0962-0.8999,0.2881
		c-0.1924,0.1924-0.2881,0.5278-0.2881,1.0078V25.4482z"/>
	<path fill="#FFFFFF" d="M124.4116,24.9443c0,1.752-0.3364,3.042-1.0083,3.8696c-0.6719,0.8281-1.9683,1.2422-3.8877,1.2422
		h-13.3203c-1.896,0-3.186-0.4141-3.8696-1.2422c-0.6841-0.8276-1.0264-2.1177-1.0264-3.8696V18.248
		c0-1.7759,0.3423-3.0718,1.0264-3.8877c0.6836-0.8159,1.9736-1.2241,3.8696-1.2241h13.3203c1.9194,0,3.2158,0.4082,3.8877,1.2241
		s1.0083,2.1118,1.0083,3.8877V24.9443z M109.7954,25.376c0,0.4805,0.0898,0.8281,0.27,1.0439
		c0.1802,0.2163,0.498,0.3242,0.9541,0.3242h3.5278c0.5039,0,0.8462-0.1079,1.0259-0.3242c0.1802-0.2158,0.27-0.5635,0.27-1.0439
		v-7.5601c0-0.4795-0.0898-0.8276-0.27-1.0439c-0.1797-0.2158-0.522-0.3237-1.0259-0.3237h-3.5278
		c-0.4561,0-0.7739,0.1079-0.9541,0.3237c-0.1802,0.2163-0.27,0.5645-0.27,1.0439V25.376z"/>
	<path fill="#FFFFFF" d="M143.4917,18.1763c1.9917,0,3.2578,0.4141,3.7979,1.2417c0.54,0.8281,0.8335,1.7588,0.8818,2.79v3.3843
		c0,0.0718,0,0.1382,0,0.1978c0,0.0601,0,0.126,0,0.1982c-0.0718,1.0078-0.4922,1.9385-1.2598,2.79
		c-0.7686,0.8521-2.0645,1.2778-3.8882,1.2778h-15.7681l-0.6479-4.0679c0.1919,0.0962,0.3779,0.1797,0.5581,0.252
		c0.1802,0.0718,0.3657,0.144,0.5581,0.2158c0.4795,0.1924,1.0195,0.3242,1.6196,0.396c0.5996,0.0723,1.4521,0.1079,2.5562,0.1079
		h7.1641c0.4321,0,0.7256-0.0654,0.8818-0.1978c0.1558-0.1318,0.2344-0.3657,0.2344-0.7021v-0.3599
		c0-0.3359-0.0786-0.5698-0.2344-0.7021c-0.1562-0.1313-0.4497-0.1978-0.8818-0.1978h-7.3799c-1.9443,0-3.186-0.4199-3.7261-1.2603
		c-0.54-0.8398-0.8345-1.7759-0.8818-2.8081v-3.2759c0-1.2959,0.4912-2.3398,1.4756-3.1318c0.9839-0.792,2.2798-1.188,3.8882-1.188
		h14.688l0.7202,4.2119c-0.2881-0.3359-0.8228-0.5938-1.6021-0.7739c-0.7803-0.1802-1.6147-0.2817-2.502-0.3062
		c-0.1685-0.0234-0.3364-0.0361-0.5044-0.0361s-0.3359,0-0.5039,0h-6.5879c-0.4082,0-0.7021,0.0542-0.8818,0.1621
		c-0.1802,0.1079-0.27,0.2583-0.27,0.4502v0.7197c0,0.1924,0.0898,0.3423,0.27,0.4502c0.1797,0.1079,0.4736,0.1621,0.8818,0.1621
		H143.4917z"/>
	<path fill="#FFFFFF" d="M153.0669,9.6079l8.4961-0.2158v3.7441h6.8398v3.312h-6.8398v8.9277c0,0.5283,0.0957,0.8882,0.2881,1.0801
		c0.1919,0.1924,0.6597,0.2881,1.4038,0.2881h2.9883c0.5273,0,0.9956-0.0361,1.4038-0.1079
		c0.4077-0.0723,0.7437-0.1558,1.0078-0.252c0.168-0.0479,0.312-0.1021,0.4321-0.1621c0.1196-0.0596,0.2158-0.1021,0.2881-0.126
		l-0.54,3.96h-10.728c-1.3442,0-2.52-0.354-3.5278-1.062c-1.0083-0.7075-1.5122-2.1177-1.5122-4.23v-8.3159h-3.6357v-3.312h3.6357
		V9.6079z"/>
	<path fill="#FFFFFF" d="M196.9868,8.4199v18.4321v0.0361c0,0.8638,0.0776,1.5244,0.2339,1.98
		c0.1558,0.4561,0.354,0.8521,0.5942,1.188h-10.4043c0.2642-0.3359,0.4619-0.7319,0.5942-1.188
		c0.1313-0.4556,0.1978-1.1162,0.1978-1.98V14.0361h-3.2759V9.896l9.7202-2.9517h2.3398V8.4199z"/>
	<path fill="#FFFFFF" d="M221.7183,6.9443c1.8721,0,3.312,0.5098,4.3198,1.5298c1.0083,1.0205,1.5122,2.79,1.5122,5.3101v9.5039
		c0,2.4722-0.5039,4.2183-1.5122,5.2383c-1.0078,1.02-2.4478,1.5298-4.3198,1.5298h-13.248c-1.8721,0-3.312-0.5098-4.3198-1.5298
		c-1.0083-1.02-1.5122-2.7661-1.5122-5.2383v-9.5039c0-2.52,0.5039-4.2896,1.5122-5.3101c1.0078-1.02,2.4478-1.5298,4.3198-1.5298
		H221.7183z M213.1504,10.7603c-0.5762,0-1.0083,0.1079-1.2964,0.3237c-0.2876,0.2163-0.4316,0.6245-0.4316,1.2241v12.4561
		c0,0.5522,0.144,0.936,0.4316,1.1519c0.2881,0.2163,0.7202,0.3242,1.2964,0.3242h3.8159c0.5757,0,1.0078-0.1079,1.2959-0.3242
		c0.2881-0.2158,0.4321-0.5996,0.4321-1.1519V12.3081c0-0.5996-0.144-1.0078-0.4321-1.2241
		c-0.2881-0.2158-0.7202-0.3237-1.2959-0.3237H213.1504z"/>
	<path fill="#FFFFFF" d="M239.8613,26.0962c0,1.0801,0.0605,1.8901,0.1807,2.4302c0.1191,0.5396,0.2881,1.0259,0.5039,1.458
		c0,0.0239,0.0117,0.0483,0.0361,0.0718h-10.2246c0.0244-0.0234,0.0361-0.0479,0.0361-0.0718
		c0.2158-0.4321,0.3838-0.9185,0.5039-1.458c0.1201-0.54,0.1807-1.3501,0.1807-2.4302V10.9043c0-1.0801-0.0605-1.8901-0.1807-2.4302
		s-0.2881-1.0259-0.5039-1.458c0-0.0234-0.0117-0.0479-0.0361-0.0718h1.5488h18.4316h0.0361l0.6836,4.4277
		c-0.0479-0.0234-0.0957-0.0415-0.1436-0.0537c-0.0488-0.0122-0.0967-0.0181-0.1445-0.0181c-0.4082-0.144-0.8945-0.27-1.458-0.3779
		c-0.5635-0.1084-1.3262-0.1621-2.2861-0.1621h-7.1641v5.4717h6.2646c0.9355,0,1.6855-0.0537,2.25-0.1616
		c0.5635-0.1084,1.0615-0.2344,1.4941-0.3779c0.0479,0,0.0957-0.0059,0.1436-0.0181s0.0957-0.0298,0.1445-0.0542v5.04
		c-0.0488-0.0234-0.0967-0.0415-0.1445-0.0542c-0.0479-0.0117-0.0957-0.0176-0.1436-0.0176c-0.4326-0.144-0.9307-0.27-1.4941-0.3784
		c-0.5645-0.1079-1.3145-0.1616-2.25-0.1616h-6.2646V26.0962z"/>
</g>
</svg>
